<svg width="1280" height="480" xmlns="http://www.w3.org/2000/svg" xmlns:xlink="http://www.w3.org/1999/xlink" overflow="hidden"><g><rect x="0" y="0" width="1280" height="480" fill="#161922"/><rect x="0" y="199" width="144" height="86" stroke="#042433" stroke-width="2" stroke-miterlimit="8" fill="#1B6F96"/><text fill="#E6E6E6" font-family="Aptos,Aptos_MSFontService,sans-serif" font-weight="400" font-size="24" transform="translate(34.7366 235)">Battery</text><text fill="#E6E6E6" font-family="Aptos,Aptos_MSFontService,sans-serif" font-weight="400" font-size="24" transform="translate(51.17 264)">Cell</text><rect x="455" y="199" width="144" height="86" stroke="#042433" stroke-width="2" stroke-miterlimit="8" fill="#1B6F96"/><text fill="#E6E6E6" font-family="Aptos,Aptos_MSFontService,sans-serif" font-weight="400" font-size="24" transform="translate(470.897 235)">Pneumatic</text><text fill="#E6E6E6" font-family="Aptos,Aptos_MSFontService,sans-serif" font-weight="400" font-size="24" transform="translate(485.59 264)">Transfer</text><rect x="1136" y="199" width="144" height="86" stroke="#042433" stroke-width="2" stroke-miterlimit="8" fill="#1B6F96"/><text fill="#E6E6E6" font-family="Aptos,Aptos_MSFontService,sans-serif" font-weight="400" font-size="24" transform="translate(1186.5 221)">SQL</text><text fill="#E6E6E6" font-family="Aptos,Aptos_MSFontService,sans-serif" font-weight="400" font-size="24" transform="translate(1157.83 250)">Database</text><text fill="#E6E6E6" font-family="Aptos,Aptos_MSFontService,sans-serif" font-weight="400" font-size="24" transform="translate(1168.47 279)">Logging</text><rect x="910" y="199" width="144" height="86" stroke="#042433" stroke-width="2" stroke-miterlimit="8" fill="#1B6F96"/><text fill="#E6E6E6" font-family="Aptos,Aptos_MSFontService,sans-serif" font-weight="400" font-size="24" transform="translate(944.89 235)">SCADA</text><text fill="#E6E6E6" font-family="Aptos,Aptos_MSFontService,sans-serif" font-weight="400" font-size="24" transform="translate(943.51 264)">Display</text><rect x="683" y="199" width="144" height="86" stroke="#042433" stroke-width="2" stroke-miterlimit="8" fill="#1B6F96"/><text fill="#E6E6E6" font-family="Aptos,Aptos_MSFontService,sans-serif" font-weight="400" font-size="24" transform="translate(733.637 235)">PLC</text><text fill="#E6E6E6" font-family="Aptos,Aptos_MSFontService,sans-serif" font-weight="400" font-size="24" transform="translate(697.757 264)">Processing</text><rect x="228" y="199" width="144" height="86" stroke="#042433" stroke-width="2" stroke-miterlimit="8" fill="#1B6F96"/><text fill="#E6E6E6" font-family="Aptos,Aptos_MSFontService,sans-serif" font-weight="400" font-size="24" transform="translate(267.853 235)">Vision</text><text fill="#E6E6E6" font-family="Aptos,Aptos_MSFontService,sans-serif" font-weight="400" font-size="24" transform="translate(273.507 264)">Scan</text><path d="M1.67604e-06-1.33333 76.8534-1.33324 76.8534 1.33343-1.67604e-06 1.33333ZM75.52-3.99991 83.52 0.000104987 75.52 4.00009Z" fill="#1B6F96" transform="matrix(1 0 0 -1 144.5 242.5)"/><path d="M1.67604e-06-1.33333 76.8534-1.33324 76.8534 1.33343-1.67604e-06 1.33333ZM75.52-3.99991 83.52 0.000104987 75.52 4.00009Z" fill="#1B6F96" transform="matrix(1 0 0 -1 372.5 242.5)"/><path d="M1.67604e-06-1.33333 76.8534-1.33324 76.8534 1.33343-1.67604e-06 1.33333ZM75.52-3.99991 83.52 0.000104987 75.52 4.00009Z" fill="#1B6F96" transform="matrix(1 0 0 -1 600.5 242.5)"/><path d="M1.67604e-06-1.33333 76.8534-1.33324 76.8534 1.33343-1.67604e-06 1.33333ZM75.52-3.99991 83.52 0.000104987 75.52 4.00009Z" fill="#1B6F96" transform="matrix(1 0 0 -1 827.5 242.5)"/><path d="M1.67604e-06-1.33333 76.8534-1.33324 76.8534 1.33343-1.67604e-06 1.33333ZM75.52-3.99991 83.52 0.000104987 75.52 4.00009Z" fill="#1B6F96" transform="matrix(1 0 0 -1 1054.5 242.5)"/></g></svg>