<svg width="1280" height="720" xmlns="http://www.w3.org/2000/svg" xmlns:xlink="http://www.w3.org/1999/xlink" overflow="hidden"><g><rect x="0" y="0" width="1280" height="720" fill="#FFFFFF"/><rect x="0" y="319" width="144" height="86" stroke="#042433" stroke-width="2" stroke-miterlimit="8" fill="#156082"/><text fill="#FFFFFF" font-family="Aptos,Aptos_MSFontService,sans-serif" font-weight="400" font-size="24" transform="translate(34.7366 355)">Battery</text><text fill="#FFFFFF" font-family="Aptos,Aptos_MSFontService,sans-serif" font-weight="400" font-size="24" transform="translate(51.17 384)">Cell</text><rect x="455" y="319" width="144" height="86" stroke="#042433" stroke-width="2" stroke-miterlimit="8" fill="#156082"/><text fill="#FFFFFF" font-family="Aptos,Aptos_MSFontService,sans-serif" font-weight="400" font-size="24" transform="translate(470.897 355)">Pneumatic</text><text fill="#FFFFFF" font-family="Aptos,Aptos_MSFontService,sans-serif" font-weight="400" font-size="24" transform="translate(485.59 384)">Transfer</text><rect x="1136" y="319" width="144" height="86" stroke="#042433" stroke-width="2" stroke-miterlimit="8" fill="#156082"/><text fill="#FFFFFF" font-family="Aptos,Aptos_MSFontService,sans-serif" font-weight="400" font-size="24" transform="translate(1186.5 341)">SQL</text><text fill="#FFFFFF" font-family="Aptos,Aptos_MSFontService,sans-serif" font-weight="400" font-size="24" transform="translate(1157.83 370)">Database</text><text fill="#FFFFFF" font-family="Aptos,Aptos_MSFontService,sans-serif" font-weight="400" font-size="24" transform="translate(1168.47 399)">Logging</text><rect x="910" y="319" width="144" height="86" stroke="#042433" stroke-width="2" stroke-miterlimit="8" fill="#156082"/><text fill="#FFFFFF" font-family="Aptos,Aptos_MSFontService,sans-serif" font-weight="400" font-size="24" transform="translate(944.89 355)">SCADA</text><text fill="#FFFFFF" font-family="Aptos,Aptos_MSFontService,sans-serif" font-weight="400" font-size="24" transform="translate(943.51 384)">Display</text><rect x="683" y="319" width="144" height="86" stroke="#042433" stroke-width="2" stroke-miterlimit="8" fill="#156082"/><text fill="#FFFFFF" font-family="Aptos,Aptos_MSFontService,sans-serif" font-weight="400" font-size="24" transform="translate(733.637 355)">PLC</text><text fill="#FFFFFF" font-family="Aptos,Aptos_MSFontService,sans-serif" font-weight="400" font-size="24" transform="translate(697.757 384)">Processing</text><rect x="228" y="319" width="144" height="86" stroke="#042433" stroke-width="2" stroke-miterlimit="8" fill="#156082"/><text fill="#FFFFFF" font-family="Aptos,Aptos_MSFontService,sans-serif" font-weight="400" font-size="24" transform="translate(267.853 355)">Vision</text><text fill="#FFFFFF" font-family="Aptos,Aptos_MSFontService,sans-serif" font-weight="400" font-size="24" transform="translate(273.507 384)">Scan</text><path d="M1.25703e-06-1 76.8534-0.999903 76.8534 1.0001-1.25703e-06 1ZM75.52-3.99991 83.52 0.000104987 75.52 4.00009Z" fill="#156082" transform="matrix(1 0 0 -1 144 362)"/><path d="M1.25703e-06-1 76.8534-0.999903 76.8534 1.0001-1.25703e-06 1ZM75.52-3.99991 83.52 0.000104987 75.52 4.00009Z" fill="#156082" transform="matrix(1 0 0 -1 372 362)"/><path d="M1.25703e-06-1 76.8534-0.999903 76.8534 1.0001-1.25703e-06 1ZM75.52-3.99991 83.52 0.000104987 75.52 4.00009Z" fill="#156082" transform="matrix(1 0 0 -1 600 362)"/><path d="M1.25703e-06-1 76.8534-0.999903 76.8534 1.0001-1.25703e-06 1ZM75.52-3.99991 83.52 0.000104987 75.52 4.00009Z" fill="#156082" transform="matrix(1 0 0 -1 827 362)"/><path d="M1.25703e-06-1 76.8534-0.999903 76.8534 1.0001-1.25703e-06 1ZM75.52-3.99991 83.52 0.000104987 75.52 4.00009Z" fill="#156082" transform="matrix(1 0 0 -1 1054 362)"/></g></svg>